<?xml version="1.0" encoding="UTF-8"?>
<svg id="Capa_1" data-name="Capa 1" xmlns="http://www.w3.org/2000/svg" xmlns:xlink="http://www.w3.org/1999/xlink" viewBox="0 0 216.91 287.59">
  <defs>
    <style>
      .cls-1 {
        fill: url(#Degradado_sin_nombre_17);
      }

      .cls-2 {
        fill: #1a174b;
      }
    </style>
    <linearGradient id="Degradado_sin_nombre_17" data-name="Degradado sin nombre 17" x1="41.66" y1="114.36" x2="186.49" y2="114.36" gradientUnits="userSpaceOnUse">
      <stop offset="0" stop-color="#834eef"/>
      <stop offset="1" stop-color="#1a174b"/>
    </linearGradient>
  </defs>
  <path class="cls-1" d="M186.49,114.36c0,16.65-13.5,30.15-30.15,30.15-9.1,0-17.25-4.02-22.78-10.4-1.53-1.41-8.57-7.64-19.47-7.64h-.02c-10.8,0-17.81,6.13-19.36,7.56v-.07c-5.53,6.45-13.74,10.54-22.91,10.54-16.65,0-30.15-13.49-30.15-30.15s13.5-30.15,30.15-30.15c9.1,0,17.25,4.02,22.78,10.4,1.53,1.41,8.58,7.64,19.49,7.64s17.96-6.22,19.49-7.64c5.53-6.37,13.68-10.4,22.78-10.4,16.65,0,30.15,13.5,30.15,30.15Z"/>
  <path class="cls-2" d="M126.87,166.23c0,8.21-7.01,15.3-15.3,15.3h-22.72c-4.69,0-8.5,3.8-8.5,8.5v7.57c0,14.09-11.42,25.51-25.52,25.51h-4.31c-1.14,0-2.08-.93-2.08-2.08v-44.58c0-7.3,3.19-14.35,8.67-19.17,6.4-5.62,13.53-6.22,21.65-6.28,10.92-.08,21.85-.07,32.77-.07h.02c8.45,0,15.3,6.85,15.3,15.3h0Z"/>
</svg>